<?xml version="1.0" encoding="utf-8"?>
<!-- Generator: Adobe Illustrator 16.0.4, SVG Export Plug-In . SVG Version: 6.00 Build 0)  -->
<!DOCTYPE svg PUBLIC "-//W3C//DTD SVG 1.0//EN" "http://www.w3.org/TR/2001/REC-SVG-20010904/DTD/svg10.dtd">
<svg version="1.0" id="Layer_1" xmlns="http://www.w3.org/2000/svg" xmlns:xlink="http://www.w3.org/1999/xlink" x="0px" y="0px"
	 width="33px" height="33px" viewBox="0 0 33 33" enable-background="new 0 0 33 33" xml:space="preserve">
<g>
	<path fill="#231F20" d="M16.5,1.689C8.333,1.689,1.689,8.333,1.689,16.5S8.333,31.311,16.5,31.311S31.311,24.667,31.311,16.5
		S24.667,1.689,16.5,1.689 M16.5,32C7.953,32,1,25.046,1,16.5C1,7.953,7.953,1,16.5,1S32,7.953,32,16.5C32,25.046,25.047,32,16.5,32
		"/>
	<path fill="#231F20" d="M11.239,15.312c-0.19,0-0.345-0.154-0.345-0.344v-3.791c0-0.19,0.154-0.344,0.345-0.344h3.79
		c0.191,0,0.345,0.154,0.345,0.344c0,0.191-0.153,0.345-0.345,0.345h-3.446v3.446C11.583,15.158,11.43,15.312,11.239,15.312"/>
	<path fill="#231F20" d="M21.938,15.312c-0.19,0-0.344-0.154-0.344-0.344v-3.446h-3.445c-0.19,0-0.344-0.154-0.344-0.345
		c0-0.19,0.153-0.344,0.344-0.344h3.789c0.19,0,0.344,0.154,0.344,0.344v3.791C22.282,15.158,22.129,15.312,21.938,15.312"/>
	<path fill="#231F20" d="M15.029,22.167h-3.79c-0.19,0-0.345-0.154-0.345-0.344v-3.791c0-0.19,0.154-0.344,0.345-0.344
		s0.345,0.153,0.345,0.344v3.446h3.445c0.19,0,0.344,0.153,0.344,0.345C15.373,22.013,15.22,22.167,15.029,22.167"/>
	<path fill="#231F20" d="M21.938,22.167h-3.789c-0.19,0-0.344-0.154-0.344-0.344c0-0.191,0.153-0.345,0.344-0.345h3.445v-3.446
		c0-0.19,0.153-0.344,0.344-0.344s0.344,0.153,0.344,0.344v3.791C22.282,22.013,22.129,22.167,21.938,22.167"/>
	<path fill="#231F20" d="M9.413,23.676h14.352V9.323H9.413V23.676z M24.11,24.364H9.069c-0.191,0-0.345-0.154-0.345-0.344V8.979
		c0-0.19,0.154-0.344,0.345-0.344H24.11c0.189,0,0.344,0.154,0.344,0.344v15.042C24.454,24.21,24.3,24.364,24.11,24.364"/>
</g>
<g>
</g>
<g>
</g>
<g>
</g>
<g>
</g>
<g>
</g>
<g>
</g>
<g>
</g>
<g>
</g>
<g>
</g>
<g>
</g>
<g>
</g>
</svg>
