<?xml version="1.0" encoding="utf-8"?>
<!-- Generator: Adobe Illustrator 16.0.4, SVG Export Plug-In . SVG Version: 6.00 Build 0)  -->
<!DOCTYPE svg PUBLIC "-//W3C//DTD SVG 1.0//EN" "http://www.w3.org/TR/2001/REC-SVG-20010904/DTD/svg10.dtd">
<svg version="1.0" id="Layer_1" xmlns="http://www.w3.org/2000/svg" xmlns:xlink="http://www.w3.org/1999/xlink" x="0px" y="0px"
	 width="25px" height="25px" viewBox="0 0 25 25" enable-background="new 0 0 25 25" xml:space="preserve">
<g>
	<g>
		<path d="M12.5,24.28c-6.497,0-11.78-5.284-11.78-11.78c0-6.496,5.283-11.78,11.78-11.78c6.496,0,11.779,5.284,11.779,11.78
			C24.279,18.996,18.996,24.28,12.5,24.28L12.5,24.28z M12.5,1.243c-6.207,0-11.256,5.05-11.256,11.257
			c0,6.208,5.049,11.257,11.256,11.257S23.756,18.708,23.756,12.5C23.756,6.293,18.707,1.243,12.5,1.243L12.5,1.243z"/>
	</g>
</g>
<g>
	<g>
		<path d="M7.627,17.666c-0.08,0-0.161-0.03-0.223-0.093c-0.123-0.123-0.123-0.322,0-0.445l9.746-9.744
			c0.123-0.123,0.322-0.123,0.445,0s0.123,0.322,0,0.445L7.85,17.573C7.788,17.636,7.707,17.666,7.627,17.666L7.627,17.666z"/>
	</g>
	<g>
		<path d="M17.373,17.666c-0.08,0-0.16-0.03-0.223-0.093L7.404,7.83c-0.123-0.123-0.123-0.322,0-0.445s0.322-0.123,0.445,0
			l9.746,9.744c0.123,0.123,0.123,0.322,0,0.445C17.535,17.636,17.454,17.666,17.373,17.666L17.373,17.666z"/>
	</g>
</g>
<g>
</g>
<g>
</g>
<g>
</g>
<g>
</g>
<g>
</g>
<g>
</g>
<g>
</g>
<g>
</g>
<g>
</g>
<g>
</g>
<g>
</g>
<g>
</g>
<g>
</g>
<g>
</g>
<g>
</g>
</svg>
