<?xml version="1.0" encoding="utf-8"?>
<!-- Generator: Adobe Illustrator 16.0.4, SVG Export Plug-In . SVG Version: 6.00 Build 0)  -->
<!DOCTYPE svg PUBLIC "-//W3C//DTD SVG 1.0//EN" "http://www.w3.org/TR/2001/REC-SVG-20010904/DTD/svg10.dtd">
<svg version="1.0" xmlns="http://www.w3.org/2000/svg" xmlns:xlink="http://www.w3.org/1999/xlink" x="0px" y="0px" width="35px"
	 height="35px" viewBox="0 0 35 35" enable-background="new 0 0 35 35" xml:space="preserve">
<g id="Layer_2">
	<g>
		<g>
			<path fill="#FF9933" d="M17.529,34.359c-9.28,0-16.828-7.549-16.828-16.829c0-9.28,7.547-16.829,16.828-16.829
				c9.28,0,16.829,7.549,16.829,16.829C34.357,26.811,26.809,34.359,17.529,34.359L17.529,34.359z M17.529,1.449
				c-8.867,0-16.08,7.213-16.08,16.081c0,8.868,7.213,16.081,16.08,16.081c8.868,0,16.081-7.213,16.081-16.081
				C33.609,8.663,26.396,1.449,17.529,1.449L17.529,1.449z"/>
		</g>
	</g>
</g>
<g id="county_details">
	<path fill="#FF9933" d="M28.127,15.355l-2.014-2.012c-0.117-0.118-0.309-0.118-0.426,0l-1.707,1.708v-4.976
		c0-0.166-0.137-0.301-0.303-0.301h-2.488c-0.285-0.516-0.758-0.946-1.367-1.209c-0.198-1.041-1.104-1.805-2.176-1.805
		s-1.977,0.764-2.176,1.805c-0.608,0.263-1.08,0.693-1.367,1.209h-2.958c-0.167,0-0.302,0.135-0.302,0.301v15.862
		c0,0.167,0.135,0.301,0.302,0.301h12.532c0.166,0,0.303-0.134,0.303-0.301v-6.01l4.146-4.146
		C28.244,15.664,28.244,15.474,28.127,15.355z M15.848,9.066l0.175-0.065l0.021-0.187c0.089-0.826,0.779-1.449,1.604-1.449
		c0.825,0,1.516,0.623,1.604,1.449l0.021,0.187l0.176,0.065c0.875,0.32,1.441,1.043,1.441,1.842c0,0.312-0.254,0.565-0.566,0.565
		h-5.351c-0.312,0-0.565-0.253-0.565-0.565C14.406,10.11,14.972,9.387,15.848,9.066z M23.377,25.637h-11.93v-15.26h2.426
		c-0.041,0.174-0.068,0.35-0.068,0.531c0,0.645,0.523,1.168,1.167,1.168h5.351c0.645,0,1.168-0.523,1.168-1.168
		c0-0.182-0.027-0.357-0.068-0.531h1.955v5.277l-4.739,4.739c-0.04,0.04-0.068,0.092-0.081,0.148l-0.562,2.549
		c-0.022,0.1,0.008,0.204,0.08,0.277c0.057,0.058,0.134,0.089,0.214,0.089c0.021,0,0.042-0.002,0.062-0.007l2.574-0.537
		c0.059-0.012,0.111-0.04,0.152-0.081l2.301-2.301V25.637z M20.715,22.343l-2.032,0.422l0.443-2.008l5.681-5.681l1.588,1.586
		L20.715,22.343z M26.82,16.236l-1.588-1.586l0.668-0.668l1.586,1.586L26.82,16.236z M16.481,20.83l-2.366,2.364l-0.93-0.929
		c-0.117-0.117-0.308-0.117-0.426,0c-0.117,0.118-0.117,0.309,0,0.427l1.143,1.142c0.06,0.059,0.137,0.088,0.213,0.088
		c0.078,0,0.154-0.029,0.214-0.088l2.579-2.578c0.117-0.117,0.117-0.309,0-0.426C16.79,20.712,16.6,20.712,16.481,20.83z
		 M16.481,17.338l-2.366,2.365l-0.93-0.93c-0.117-0.117-0.308-0.117-0.426,0c-0.117,0.118-0.117,0.309,0,0.427l1.143,1.142
		c0.06,0.06,0.137,0.089,0.213,0.089c0.078,0,0.154-0.029,0.214-0.089l2.579-2.578c0.117-0.118,0.117-0.309,0-0.426
		C16.79,17.22,16.6,17.22,16.481,17.338z M16.481,13.861l-2.366,2.365l-0.93-0.929c-0.117-0.118-0.308-0.118-0.426,0
		c-0.117,0.118-0.117,0.308,0,0.426l1.143,1.143c0.06,0.059,0.137,0.088,0.213,0.088c0.078,0,0.154-0.029,0.214-0.088l2.579-2.579
		c0.117-0.117,0.117-0.309,0-0.426C16.79,13.744,16.6,13.744,16.481,13.861z"/>
	<g>
	</g>
	<g>
	</g>
	<g>
	</g>
	<g>
	</g>
	<g>
	</g>
	<g>
	</g>
	<g>
	</g>
	<g>
	</g>
	<g>
	</g>
	<g>
	</g>
	<g>
	</g>
	<g>
	</g>
	<g>
	</g>
	<g>
	</g>
	<g>
	</g>
</g>
</svg>
