<?xml version="1.0" encoding="utf-8"?>
<!-- Generator: Adobe Illustrator 16.0.4, SVG Export Plug-In . SVG Version: 6.00 Build 0)  -->
<!DOCTYPE svg PUBLIC "-//W3C//DTD SVG 1.0//EN" "http://www.w3.org/TR/2001/REC-SVG-20010904/DTD/svg10.dtd">
<svg version="1.0" xmlns="http://www.w3.org/2000/svg" xmlns:xlink="http://www.w3.org/1999/xlink" x="0px" y="0px" width="35px"
	 height="35px" viewBox="0 0 35 35" enable-background="new 0 0 35 35" xml:space="preserve">
<g id="Layer_2">
	<g>
		<g>
			<path fill="#FF9933" d="M17.529,34.359c-9.28,0-16.828-7.549-16.828-16.829c0-9.28,7.547-16.829,16.828-16.829
				c9.28,0,16.829,7.549,16.829,16.829C34.357,26.811,26.809,34.359,17.529,34.359L17.529,34.359z M17.529,1.449
				c-8.867,0-16.08,7.213-16.08,16.081c0,8.868,7.213,16.081,16.08,16.081c8.868,0,16.081-7.213,16.081-16.081
				C33.609,8.663,26.396,1.449,17.529,1.449L17.529,1.449z"/>
		</g>
	</g>
</g>
<g id="elected_officials">
	<g>
		<g>
			<path fill="#FF9933" d="M25.383,15.113H9.616c-0.15,0-0.284-0.098-0.328-0.242c-0.044-0.144,0.01-0.3,0.134-0.385l7.884-5.394
				c0.117-0.079,0.271-0.079,0.389,0l7.884,5.394c0.123,0.085,0.178,0.242,0.133,0.385C25.668,15.015,25.533,15.113,25.383,15.113
				L25.383,15.113z M10.727,14.426h13.547L17.5,9.792L10.727,14.426L10.727,14.426z"/>
		</g>
		<g>
			<g>
				<path fill="#FF9933" d="M11.601,21.906c-0.19,0-0.344-0.154-0.344-0.346v-6.527c0-0.189,0.154-0.344,0.344-0.344
					s0.344,0.154,0.344,0.344v6.527C11.945,21.752,11.791,21.906,11.601,21.906L11.601,21.906z"/>
			</g>
			<g>
				<path fill="#FF9933" d="M23.396,21.906c-0.188,0-0.342-0.154-0.342-0.346v-6.527c0-0.189,0.154-0.344,0.342-0.344
					c0.191,0,0.346,0.154,0.346,0.344v6.527C23.742,21.752,23.588,21.906,23.396,21.906L23.396,21.906z"/>
			</g>
			<g>
				<path fill="#FF9933" d="M14.551,21.906c-0.19,0-0.344-0.154-0.344-0.346v-6.527c0-0.189,0.153-0.344,0.344-0.344
					c0.189,0,0.343,0.154,0.343,0.344v6.527C14.894,21.752,14.74,21.906,14.551,21.906L14.551,21.906z"/>
			</g>
			<g>
				<path fill="#FF9933" d="M17.5,21.906c-0.189,0-0.344-0.154-0.344-0.346v-6.527c0-0.189,0.154-0.344,0.344-0.344
					s0.344,0.154,0.344,0.344v6.527C17.843,21.752,17.689,21.906,17.5,21.906L17.5,21.906z"/>
			</g>
			<g>
				<path fill="#FF9933" d="M20.447,21.906c-0.188,0-0.342-0.154-0.342-0.346v-6.527c0-0.189,0.154-0.344,0.342-0.344
					c0.191,0,0.346,0.154,0.346,0.344v6.527C20.793,21.752,20.639,21.906,20.447,21.906L20.447,21.906z"/>
			</g>
		</g>
		<g>
			<path fill="#FF9933" d="M24.498,21.99H10.5c-0.189,0-0.343-0.152-0.343-0.344c0-0.189,0.154-0.344,0.343-0.344h13.998
				c0.191,0,0.344,0.154,0.344,0.344C24.842,21.838,24.689,21.99,24.498,21.99L24.498,21.99z"/>
		</g>
		<g>
			<path fill="#FF9933" d="M25.873,23.967H9.126c-0.19,0-0.344-0.154-0.344-0.344s0.154-0.344,0.344-0.344h16.747
				c0.189,0,0.344,0.154,0.344,0.344S26.062,23.967,25.873,23.967L25.873,23.967z"/>
		</g>
	</g>
	<g>
	</g>
	<g>
	</g>
	<g>
	</g>
	<g>
	</g>
	<g>
	</g>
	<g>
	</g>
	<g>
	</g>
	<g>
	</g>
	<g>
	</g>
	<g>
	</g>
	<g>
	</g>
	<g>
	</g>
	<g>
	</g>
	<g>
	</g>
	<g>
	</g>
</g>
</svg>
