<?xml version="1.0" encoding="utf-8"?>
<!-- Generator: Adobe Illustrator 16.0.4, SVG Export Plug-In . SVG Version: 6.00 Build 0)  -->
<!DOCTYPE svg PUBLIC "-//W3C//DTD SVG 1.0//EN" "http://www.w3.org/TR/2001/REC-SVG-20010904/DTD/svg10.dtd">
<svg version="1.0" id="Layer_1" xmlns="http://www.w3.org/2000/svg" xmlns:xlink="http://www.w3.org/1999/xlink" x="0px" y="0px"
	 width="33px" height="33px" viewBox="0 0 33 33" enable-background="new 0 0 33 33" xml:space="preserve">
<g>
	<path fill="#231F20" d="M16.5,1.681C8.329,1.681,1.681,8.329,1.681,16.5S8.329,31.319,16.5,31.319S31.319,24.671,31.319,16.5
		S24.671,1.681,16.5,1.681 M16.5,32C7.953,32,1,25.047,1,16.5S7.953,1,16.5,1S32,7.953,32,16.5S25.047,32,16.5,32"/>
	<path fill="#231F20" d="M17.776,8.892c-0.458,0-0.839,0.147-1.165,0.451c-0.318,0.297-0.474,0.644-0.474,1.059
		c0,0.414,0.153,0.758,0.474,1.053c0.325,0.3,0.706,0.446,1.165,0.446c0.456,0,0.835-0.145,1.159-0.446
		c0.315-0.294,0.469-0.638,0.469-1.053s-0.153-0.762-0.471-1.06C18.611,9.039,18.231,8.892,17.776,8.892 M17.776,12.54
		c-0.618,0-1.155-0.207-1.599-0.616c-0.451-0.416-0.68-0.928-0.68-1.522c0-0.594,0.229-1.107,0.679-1.526
		c0.444-0.413,0.981-0.623,1.6-0.623c0.617,0,1.153,0.21,1.594,0.624c0.446,0.419,0.673,0.932,0.673,1.525
		c0,0.593-0.227,1.105-0.673,1.52C18.93,12.332,18.393,12.54,17.776,12.54 M14.033,14.952c0.521,0,0.879,0.101,1.096,0.307
		c0.222,0.213,0.328,0.542,0.328,1.006c0,0.227-0.025,0.469-0.08,0.743c-0.051,0.25-0.114,0.523-0.19,0.81l-0.821,2.907
		c-0.066,0.282-0.119,0.548-0.148,0.776c-0.032,0.225-0.047,0.449-0.047,0.668c0,0.505,0.18,0.909,0.552,1.236
		c0.379,0.333,0.933,0.503,1.644,0.503c0.477,0,0.899-0.063,1.256-0.188c0.349-0.121,0.82-0.298,1.404-0.526l0.042-0.171
		c-0.005,0.002-0.01,0.003-0.015,0.004c-0.275,0.077-0.531,0.116-0.758,0.116c-0.504,0-0.862-0.091-1.096-0.279
		c-0.252-0.201-0.375-0.54-0.375-1.033c0-0.169,0.027-0.409,0.084-0.731c0.055-0.312,0.118-0.591,0.188-0.829l0.816-2.889
		c0.074-0.251,0.127-0.524,0.154-0.818c0.035-0.381,0.043-0.557,0.043-0.636c0-0.519-0.175-0.928-0.535-1.248
		c-0.367-0.325-0.91-0.491-1.613-0.491c-0.401,0-0.838,0.074-1.297,0.219c-0.435,0.138-0.894,0.303-1.367,0.492l-0.043,0.176
		c0.011-0.004,0.022-0.007,0.033-0.011C13.539,14.99,13.791,14.952,14.033,14.952 M16.365,24.546c-0.871,0-1.566-0.222-2.065-0.662
		c-0.511-0.449-0.769-1.026-0.769-1.715c0-0.248,0.018-0.502,0.053-0.755c0.033-0.247,0.088-0.534,0.164-0.851l0.824-2.914
		c0.07-0.27,0.131-0.529,0.178-0.767c0.047-0.228,0.07-0.436,0.07-0.618c0-0.266-0.049-0.465-0.132-0.545
		c-0.032-0.029-0.174-0.13-0.655-0.13c-0.182,0-0.371,0.03-0.562,0.087c-0.214,0.064-0.398,0.124-0.553,0.182
		c-0.111,0.041-0.235,0.017-0.323-0.061s-0.126-0.199-0.099-0.314l0.22-0.895c0.024-0.099,0.095-0.181,0.19-0.219
		c0.543-0.221,1.068-0.413,1.564-0.57c0.521-0.165,1.023-0.249,1.49-0.249c0.865,0,1.551,0.219,2.037,0.652
		c0.497,0.443,0.75,1.023,0.75,1.725c0,0.137-0.016,0.364-0.046,0.695c-0.032,0.338-0.093,0.652-0.179,0.938l-0.814,2.887
		c-0.063,0.218-0.121,0.475-0.172,0.764c-0.049,0.281-0.074,0.49-0.074,0.62c0,0.271,0.05,0.466,0.138,0.536
		c0.065,0.053,0.239,0.139,0.694,0.139c0.169,0,0.366-0.031,0.587-0.093c0.293-0.08,0.432-0.135,0.498-0.165
		c0.11-0.053,0.243-0.036,0.338,0.042s0.138,0.204,0.107,0.323l-0.219,0.895c-0.024,0.101-0.097,0.183-0.193,0.221
		c-0.673,0.265-1.19,0.459-1.583,0.596C17.406,24.471,16.912,24.546,16.365,24.546"/>
</g>
<g>
</g>
<g>
</g>
<g>
</g>
<g>
</g>
<g>
</g>
<g>
</g>
<g>
</g>
<g>
</g>
<g>
</g>
<g>
</g>
<g>
</g>
</svg>
