<?xml version="1.0" encoding="utf-8"?>
<!-- Generator: Adobe Illustrator 19.0.0, SVG Export Plug-In . SVG Version: 6.00 Build 0)  -->
<svg version="1.0" id="Layer_1" xmlns="http://www.w3.org/2000/svg" xmlns:xlink="http://www.w3.org/1999/xlink" x="0px" y="0px"
	 viewBox="0 0 30 30" style="enable-background:new 0 0 30 30;" xml:space="preserve">
<style type="text/css">
	.st0{fill:#FFFFFF;}
</style>
<path id="XMLID_4_" class="st0" d="M20.3,18c0,0-0.1,0.1-0.2,0.1c-0.1,0-0.1,0-0.2-0.1l-2.5-2.4c-0.1-0.1-0.1-0.2,0-0.3
	c0,0,0.1-0.1,0.2-0.1c0.1,0,0.1,0,0.2,0.1l2.5,2.4C20.4,17.8,20.4,17.9,20.3,18 M12.5,15.6L10,18c0,0-0.1,0.1-0.2,0.1
	c-0.1,0-0.1,0-0.2-0.1c-0.1-0.1-0.1-0.2,0-0.3l2.5-2.4c0,0,0.1-0.1,0.2-0.1c0.1,0,0.1,0,0.2,0.1C12.6,15.4,12.6,15.5,12.5,15.6
	 M15.4,16.4c-0.1,0.1-0.3,0.1-0.4,0.1c-0.1,0-0.3,0-0.4-0.1l-5.4-4.4v6c0,0.3,0.2,0.5,0.5,0.5h10.5c0.3,0,0.5-0.2,0.5-0.5v-6
	L15.4,16.4z"/>
<polygon id="XMLID_3_" class="st0" points="20.1,11.5 15,15.7 9.9,11.5 "/>
</svg>
