<?xml version="1.0" encoding="utf-8"?>
<!-- Generator: Adobe Illustrator 16.0.4, SVG Export Plug-In . SVG Version: 6.00 Build 0)  -->
<!DOCTYPE svg PUBLIC "-//W3C//DTD SVG 1.0//EN" "http://www.w3.org/TR/2001/REC-SVG-20010904/DTD/svg10.dtd">
<svg version="1.0" id="mail" xmlns="http://www.w3.org/2000/svg" xmlns:xlink="http://www.w3.org/1999/xlink" x="0px" y="0px"
	 width="33px" height="33px" viewBox="0 0 33 33" enable-background="new 0 0 33 33" xml:space="preserve">
<g>
	<g>
		<g>
			<path fill="#231F20" d="M16.527,31.888c-8.5,0-15.414-6.915-15.414-15.412c0-8.5,6.913-15.414,15.414-15.414
				c8.498,0,15.411,6.913,15.411,15.414C31.938,24.973,25.024,31.888,16.527,31.888L16.527,31.888z M16.527,1.748
				c-8.121,0-14.728,6.607-14.728,14.728c0,8.12,6.607,14.727,14.728,14.727c8.12,0,14.726-6.606,14.726-14.727
				C31.253,8.355,24.646,1.748,16.527,1.748L16.527,1.748z"/>
		</g>
	</g>
	<g>
		<g>
			<path fill="#231F20" d="M22.748,21.818H10.307c-0.702,0-1.274-0.573-1.274-1.275v-8.139c0-0.702,0.572-1.273,1.274-1.273h12.441
				c0.7,0,1.272,0.571,1.272,1.273v8.139C24.021,21.245,23.448,21.818,22.748,21.818L22.748,21.818z M10.307,11.817
				c-0.325,0-0.588,0.264-0.588,0.587v8.139c0,0.325,0.264,0.589,0.588,0.589h12.441c0.322,0,0.586-0.264,0.586-0.589v-8.139
				c0-0.324-0.264-0.587-0.586-0.587H10.307L10.307,11.817z"/>
		</g>
		<g>
			<path fill="#231F20" d="M22.748,21.818H10.307c-0.525,0-1.003-0.331-1.189-0.823c-0.051-0.134-0.015-0.283,0.092-0.377
				l4.858-4.332c0.139-0.125,0.356-0.113,0.482,0.028c0.125,0.142,0.113,0.358-0.029,0.483l-4.646,4.146
				c0.11,0.115,0.265,0.189,0.432,0.189h12.441c0.164,0,0.319-0.074,0.429-0.189l-4.699-4.194c-0.144-0.124-0.155-0.341-0.028-0.483
				c0.126-0.14,0.344-0.152,0.483-0.028l4.91,4.38c0.105,0.094,0.142,0.243,0.092,0.377C23.749,21.487,23.271,21.818,22.748,21.818
				L22.748,21.818z"/>
		</g>
		<g>
			<path fill="#231F20" d="M16.528,18.739c-0.082,0-0.164-0.028-0.229-0.086L9.21,12.331c-0.107-0.094-0.144-0.245-0.092-0.376
				c0.186-0.492,0.664-0.823,1.189-0.823h12.441c0.523,0,1.001,0.331,1.187,0.823c0.05,0.133,0.014,0.282-0.092,0.376l-7.087,6.323
				C16.69,18.711,16.608,18.739,16.528,18.739L16.528,18.739z M9.875,12.007l6.653,5.931l6.649-5.931
				c-0.109-0.119-0.265-0.19-0.429-0.19H10.307C10.14,11.817,9.985,11.889,9.875,12.007L9.875,12.007z"/>
		</g>
	</g>
</g>
<g>
</g>
<g>
</g>
<g>
</g>
<g>
</g>
<g>
</g>
<g>
</g>
<g>
</g>
<g>
</g>
<g>
</g>
<g>
</g>
<g>
</g>
</svg>
