<?xml version="1.0" encoding="utf-8"?>
<!-- Generator: Adobe Illustrator 19.0.1, SVG Export Plug-In . SVG Version: 6.00 Build 0)  -->
<svg version="1.1" id="Layer_1" xmlns="http://www.w3.org/2000/svg" xmlns:xlink="http://www.w3.org/1999/xlink" x="0px" y="0px"
	 viewBox="-37.5 -37.5 105 75" style="enable-background:new -37.5 -37.5 105 75;" xml:space="preserve">
<style type="text/css">
	.st0{fill:#FFFFFF;}
</style>
<path class="st0" d="M-28-32.1c-2.2,0-4.1,1.8-4.1,4.1v56.2c0,2.2,1.8,4.1,4.1,4.1H58c2.2,0,4.1-1.8,4.1-4.1V-28
	c0-2.2-1.8-4.1-4.1-4.1H-28z M58,37H-28c-4.9,0-8.8-3.9-8.8-8.8V-28c0-4.8,3.9-8.8,8.8-8.8H58c4.8,0,8.8,3.9,8.8,8.8v56.2
	C66.8,33.1,62.8,37,58,37"/>
<path class="st0" d="M58,37H-28c-3.6,0-6.9-2.3-8.2-5.7c-0.4-0.9-0.1-2,0.6-2.6L-2-1.2C-1-2.1,0.5-2,1.3-1c0.9,1,0.8,2.5-0.2,3.3
	L-30.9,31c0.8,0.8,1.8,1.3,3,1.3H58c1.1,0,2.2-0.5,3-1.3L28.5,2c-1-0.9-1.1-2.4-0.2-3.3c0.9-1,2.4-1.1,3.3-0.2l33.9,30.2
	c0.7,0.7,1,1.7,0.6,2.6C64.9,34.7,61.6,37,58,37"/>
<path class="st0" d="M-30.9-30.8l45.9,41l45.9-41c-0.8-0.8-1.8-1.3-3-1.3H-28C-29.1-32.1-30.2-31.6-30.9-30.8 M15,15.7
	c-0.6,0-1.1-0.2-1.6-0.6l-49-43.7c-0.7-0.7-1-1.7-0.6-2.6c1.3-3.4,4.6-5.7,8.2-5.7H58c3.6,0,6.9,2.3,8.2,5.7
	c0.3,0.9,0.1,1.9-0.6,2.6l-49,43.7C16.1,15.5,15.6,15.7,15,15.7"/>
</svg>
