<?xml version="1.0" encoding="utf-8"?>
<!-- Generator: Adobe Illustrator 19.0.0, SVG Export Plug-In . SVG Version: 6.00 Build 0)  -->
<svg version="1.0" id="Layer_1" xmlns="http://www.w3.org/2000/svg" xmlns:xlink="http://www.w3.org/1999/xlink" x="0px" y="0px"
	 viewBox="0 0 19.9 18.7" style="enable-background:new 0 0 19.9 18.7;" xml:space="preserve">
<style type="text/css">
	.st0{fill:#FFFFFF;}
</style>
<path id="XMLID_3_" class="st0" d="M13.2,18.7c-0.1,0-0.2,0-0.3-0.1c-0.3-0.2-0.3-0.6-0.1-0.8l5.9-8.4L12.7,1
	c-0.2-0.3-0.1-0.6,0.1-0.8c0.3-0.2,0.6-0.1,0.8,0.1L19.8,9c0.1,0.2,0.1,0.5,0,0.7l-6.2,8.8C13.6,18.6,13.4,18.7,13.2,18.7"/>
<path id="XMLID_2_" class="st0" d="M19.4,10H0.6C0.3,10,0,9.7,0,9.4C0,9,0.3,8.8,0.6,8.8h18.8c0.3,0,0.6,0.3,0.6,0.6
	C19.9,9.7,19.7,10,19.4,10"/>
</svg>
