<?xml version="1.0" encoding="utf-8"?>
<!-- Generator: Adobe Illustrator 16.0.4, SVG Export Plug-In . SVG Version: 6.00 Build 0)  -->
<!DOCTYPE svg PUBLIC "-//W3C//DTD SVG 1.0//EN" "http://www.w3.org/TR/2001/REC-SVG-20010904/DTD/svg10.dtd">
<svg version="1.0" id="Layer_1" xmlns="http://www.w3.org/2000/svg" xmlns:xlink="http://www.w3.org/1999/xlink" x="0px" y="0px"
	 width="33px" height="33px" viewBox="0 0 33 33" enable-background="new 0 0 33 33" xml:space="preserve">
<g>
	<path fill="#231F20" d="M16.5,1.689C8.333,1.689,1.689,8.333,1.689,16.5S8.333,31.311,16.5,31.311S31.311,24.667,31.311,16.5
		S24.667,1.689,16.5,1.689 M16.5,32C7.953,32,1,25.047,1,16.5S7.953,1,16.5,1S32,7.953,32,16.5S25.047,32,16.5,32"/>
	<path fill="#231F20" d="M24.021,24.364H8.979c-0.191,0-0.345-0.154-0.345-0.344V8.979c0-0.19,0.154-0.344,0.345-0.344h7.463
		c0.19,0,0.345,0.154,0.345,0.344c0,0.191-0.154,0.345-0.345,0.345H9.324v14.353h14.353v-7.12c0-0.191,0.154-0.346,0.344-0.346
		c0.19,0,0.344,0.154,0.344,0.346v7.465C24.364,24.21,24.211,24.364,24.021,24.364"/>
	<path fill="#231F20" d="M24.021,13.408c-0.189,0-0.344-0.154-0.344-0.344l-0.002-3.738l-3.737-0.002
		c-0.189,0-0.344-0.154-0.344-0.344s0.154-0.344,0.344-0.344l4.082,0.001c0.19,0,0.344,0.154,0.344,0.344l0.001,4.083
		C24.364,13.254,24.211,13.408,24.021,13.408"/>
	<path fill="#231F20" d="M17.555,15.791c-0.088,0-0.176-0.034-0.244-0.101c-0.135-0.134-0.135-0.352,0-0.487l5.909-5.909
		c0.135-0.135,0.353-0.135,0.487,0c0.134,0.134,0.134,0.352,0,0.487l-5.908,5.909C17.73,15.757,17.643,15.791,17.555,15.791"/>
</g>
<g>
</g>
<g>
</g>
<g>
</g>
<g>
</g>
<g>
</g>
<g>
</g>
<g>
</g>
<g>
</g>
<g>
</g>
<g>
</g>
<g>
</g>
</svg>
