<?xml version="1.0" encoding="utf-8"?>
<!-- Generator: Adobe Illustrator 19.1.0, SVG Export Plug-In . SVG Version: 6.00 Build 0)  -->
<svg version="1.1" id="Layer_1" xmlns="http://www.w3.org/2000/svg" xmlns:xlink="http://www.w3.org/1999/xlink" x="0px" y="0px"
	 viewBox="0 0 682.7 324.2" style="enable-background:new 0 0 682.7 324.2;" xml:space="preserve">
<style type="text/css">
	.st0{fill:#221F1F;}
	.st1{fill:#ED2926;}
	.st2{fill:#0099CD;}
</style>
<g>
	<path class="st0" d="M0.8,105.2c0.3-1.5,1.2-3.1,2.6-4.8c1.4-1.7,3.2-3.1,5.3-4.1c2.1-1,4.1-1.5,5.9-1.4c1.6,0.1,2.9,0.6,3.7,1.6
		c0.9,1,1.1,2.3,0.8,3.9c-0.4,1.9-1.4,3.7-3,5.4c-1.6,1.7-3.3,2.9-5.3,3.8c-2,0.8-3.8,1.2-5.5,1.1c-1.5-0.1-2.8-0.5-3.7-1.4
		C0.6,108.5,0.4,107.1,0.8,105.2z M3.3,107.4c-0.1,0.7,0,1.2,0.4,1.7c0.4,0.5,1.1,0.8,2,0.8c2.5,0.1,4.8-1.4,7.1-4.4
		c2.3-3.1,3.6-5.4,4-7.1c0.2-0.9,0.1-1.5-0.3-2c-0.4-0.4-1.1-0.7-2-0.7C12,95.6,9.7,97,7.5,99.8C5.2,102.7,3.8,105.2,3.3,107.4z"/>
	<path class="st0" d="M34.6,96.3l-0.6,0.9l-4.7-0.2l-6.9,12.6c-3.2,5.7-6.1,9.5-8.7,11.4c-2.7,1.9-5.4,2.8-8,2.6
		c-1.5-0.1-2.8-0.4-3.9-1s-1.5-1.4-1.3-2.2c0.1-0.5,0.4-0.9,0.8-1.2c0.4-0.3,0.9-0.4,1.4-0.4c0.6,0,1,0.2,1.3,0.6
		c0.3,0.4,0.4,0.7,0.3,1.1c0,0.1-0.1,0.3-0.2,0.5L4,121.6c-0.1,0.3,0.1,0.5,0.5,0.8c0.4,0.3,0.9,0.4,1.5,0.4c2.1,0.1,4.1-0.8,6-2.6
		c1.9-1.8,4.3-5.5,7.4-11l6.8-12.3l-5.3-0.2l0.6-0.9l5.3,0.2c0.1-0.2,0.3-0.6,0.7-1.3c4-7.2,8.7-10.6,14.1-10.4
		c1.5,0.1,2.6,0.4,3.3,1c0.7,0.6,1,1.2,0.9,1.7c-0.2,0.8-0.7,1.1-1.6,1.1c-0.7,0-1.4-0.6-1.9-1.6c-0.4-0.8-1-1.2-1.8-1.2
		c-1.2-0.1-2.5,0.4-3.8,1.2c-1.3,0.9-3.1,3.3-5.3,7.3L30,96.1L34.6,96.3z"/>
	<g>
		<path d="M405.8,3h-39.7v2c3.3,0.2,5.9,0.6,8,1.4c2,0.7,3.9,2,5.5,3.6c1.8,1.8,3,4.2,3.7,7c0.7,2.8,1,7.2,1,13.1v62.1L314.3,3
			h-33.1v2c3.3,0.2,6,0.6,8,1.4c2,0.7,3.8,2,5.4,3.6c1.8,1.8,3,4.2,3.7,7c0.7,2.8,1,7.2,1,13v63.5c0,5.9-0.3,10.2-1,13
			c-0.7,2.8-1.9,5.2-3.7,7c-1.6,1.7-3.4,2.9-5.5,3.6c-2,0.7-4.7,1.2-8,1.4v2h39.7v-2c-3.3-0.2-5.9-0.6-8-1.4c-2-0.7-3.9-2-5.5-3.6
			c-1.8-1.8-3-4.2-3.7-7c-0.7-2.8-1-7.2-1-13.1V18.6l81.1,101.9h3.9V30c0-5.8,0.3-10.1,1-13c0.7-2.8,1.9-5.2,3.7-7
			c3.2-3.3,7.7-5,13.4-5V3z"/>
		<path d="M507,114.7c-2-1.5-3.8-3.7-5.4-6.6c-1.7-2.9-3.9-7.8-6.7-14.6L457.4,3h-4.9L421,84.2c-2.9,7.4-5.2,13-6.9,16.7
			c-1.8,3.7-3.5,6.7-5.4,9.1c-2.2,2.9-4.4,5.1-6.7,6.4c-2.3,1.3-5,2.1-8,2.2v2h38.6v-2c-3.5-0.3-6.4-1.2-8.6-2.8
			c-1.6-1.1-2.9-2.6-3.8-4.5c-0.9-1.8-1.4-3.8-1.4-5.9c0-3.6,1.3-8.6,3.9-14.9l2.2-5.3l4.5-11.9H467l8.3,20.3l1.5,3.6
			c1.6,4,2.4,7.1,2.4,9.5c0,4-1.8,7.1-5.3,9.3c-2,1.3-5.6,2.1-10.7,2.6v2h56.5v-2c-3.6-0.4-6.2-0.9-8-1.4
			C509.9,116.6,508.3,115.8,507,114.7z M430.5,69.7l17-44.6l18.1,44.6H430.5z"/>
		<path d="M672.6,71.7c-7-7.4-15.3-11.1-25.1-11.1c-9.8,0-18.2,3.7-25.2,11.1c-5.4,5.7-8.2,12.1-8.6,19.2
			c-3.5,8.3-12.6,19.7-23.8,23.7c-5.4,1.9-11.1,3.4-17.6,3.4c-13.1,0-23.6-4.5-31.5-13.6c-4.3-4.9-7.6-10.9-9.8-18.2
			c-2.2-7.2-3.4-15.3-3.4-24.4c0-10.6,1.6-20.1,4.9-28.4c2.3-5.9,5.3-11.2,8.9-15.8c3.6-4.6,7.5-8.2,11.7-10.6
			c4.8-2.8,10.4-4.2,16.9-4.2c4.3,0,8.2,0.7,11.6,2.1c3.4,1.4,6.8,3.6,10,6.6c4.2,4,7.5,8.4,9.7,13.3c1.3,2.7,2.9,6.8,4.9,12.3
			c0.3,0.9,0.8,2.1,1.5,3.8h2l-1-38.5h-2.1c-0.6,1.3-1.1,2.3-1.5,2.8c-0.9,1.2-2.1,1.8-3.5,1.8c-1,0-2.2-0.3-3.6-0.8L590.8,4
			c-7.7-2.6-15.1-4-22-4c-7.3,0-14.6,1.2-21.8,3.7c-7.3,2.4-13.5,5.7-18.7,9.9c-6.8,5.4-12.1,12.5-15.8,21.4
			c-3.8,8.9-5.7,18.5-5.7,29c0,13.7,3.2,25.5,9.7,35.4c6.5,9.9,15.5,16.7,27,20.5c7.2,2.4,14.8,3.5,22.7,3.5c8.5,0,16.4-1.9,22.4-4
			c10.6-3.8,20.5-13.5,25.4-22c0.3,2.1,0.9,4.1,1.7,6.1c1.4,3.6,3.5,6.8,6.1,9.7c6.8,7.4,15.3,11.1,25.6,11.1
			c10.3,0,18.8-3.7,25.5-11.1c5.5-6,8.2-12.9,8.2-20.6C681.3,84.8,678.4,77.8,672.6,71.7z M666.4,104.4c-1.2,4.1-2.7,7.4-4.5,10.1
			c-1.8,2.6-3.9,4.6-6.4,6.1c-2.5,1.4-5,2.2-7.6,2.2c-6.1,0-11.3-3.2-15.5-9.7c-3.8-5.8-5.6-12.9-5.6-21.3c0-8.3,2-15.3,6-21
			c3.9-5.7,8.6-8.6,14.1-8.6c5.7,0,10.6,2.7,14.5,8.1c2.1,2.9,3.7,6.3,4.9,10.3c1.2,4,1.8,8,1.8,11.9
			C668.2,96.4,667.6,100.3,666.4,104.4z"/>
	</g>
	<path class="st1" d="M377.6,137.6c70.6,22.7,122.6,53.2,151.9,74.6c46.8-13.7,79.7-18.2,79.7-18.2
		C541.2,160.6,462.5,142.3,377.6,137.6z"/>
	<path class="st1" d="M278.3,138.1c-26.5,1.6-53.3,4.5-80.4,8.4c137.6,34.3,206.8,106.8,207.6,115.9c27.8-15,55.6-26.8,81.4-36.2
		C431.1,180.9,335.6,143.4,278.3,138.1z"/>
	<path class="st1" d="M566.1,150.9c31.7,12.9,66.1,27.1,78.8,37.9c22-4.7,37.3-5.7,37.3-5.7C652.1,165.5,605,155.9,566.1,150.9z"/>
	<g>
		<path class="st0" d="M65,85.3c7.9,0,11.8,4.3,11.8,4.3l-1.7,2.4c0,0-3.8-3.6-10-3.6c-7.7,0-13.2,6-13.2,13.7
			c0,7.9,5.5,14.3,13.3,14.3c6.6,0,10.7-4.4,10.7-4.4l1.9,2.3c0,0-4.5,5.1-12.6,5.1c-9.7,0-16.6-7.6-16.6-17.2
			C48.5,92.5,55.6,85.3,65,85.3z"/>
		<path class="st0" d="M98,85.3c9.3,0,16.7,7.3,16.7,16.8c0,9.6-7.4,17.2-16.7,17.2s-16.7-7.6-16.7-17.2
			C81.2,92.6,88.7,85.3,98,85.3z M98,116.3c7.4,0,13.4-6.2,13.4-14.2c0-7.9-6-13.8-13.4-13.8c-7.4,0-13.4,5.9-13.4,13.8
			C84.6,110.1,90.5,116.3,98,116.3z"/>
		<path class="st0" d="M120.6,85.9h3.3v21.4c0,5.7,3.6,9.1,9.3,9.1c5.7,0,9.3-3.4,9.3-9.2V85.9h3.2v21.4c0,7.3-5.1,12-12.5,12
			c-7.5,0-12.6-4.7-12.6-12V85.9z"/>
		<path class="st0" d="M151.7,85.9h3.1l16.8,23.7c1.1,1.6,2.7,4.4,2.7,4.4h0.1c0,0-0.3-2.7-0.3-4.4V85.9h3.2v32.9h-3.1l-16.8-23.7
			c-1.1-1.6-2.7-4.4-2.7-4.4h-0.1c0,0,0.3,2.7,0.3,4.4v23.7h-3.2V85.9z"/>
		<path class="st0" d="M193.3,88.8h-11.8v-2.9h26.8v2.9h-11.8v30h-3.2V88.8z"/>
		<path class="st0" d="M212.5,85.9h3.2v32.9h-3.2V85.9z"/>
		<path class="st0" d="M222.5,85.9H241v2.9h-15.3v12h12.5v2.9h-12.5v12.2h16.1v2.9h-19.4V85.9z"/>
		<path class="st0" d="M247.8,112.6c0,0,3.4,3.6,8.6,3.6c3.6,0,6.5-2.2,6.5-5.7c0-8.3-16.4-6.2-16.4-16.4c0-4.7,4.2-8.8,10.2-8.8
			c5.7,0,8.8,3.2,8.8,3.2l-1.6,2.7c0,0-2.9-2.8-7.2-2.8c-4.2,0-6.9,2.8-6.9,5.7c0,7.8,16.4,5.6,16.4,16.4c0,4.9-3.8,8.9-10,8.9
			c-6.7,0-10.4-4.2-10.4-4.2L247.8,112.6z"/>
	</g>
	<g>
		<path class="st0" d="M31.4,64.6H19.9l-3.3,9.1h-3l10.5-28.6h3l10.5,28.6h-3L31.4,64.6z M25.6,48.1c0,0-0.6,2.4-1.1,3.7l-3.8,10.4
			h9.8l-3.7-10.4C26.3,50.4,25.7,48.1,25.6,48.1L25.6,48.1z"/>
		<path class="st0" d="M41,68.4c0,0,3,3.1,7.5,3.1c3.1,0,5.7-1.9,5.7-5c0-7.2-14.3-5.4-14.3-14.2c0-4.1,3.6-7.7,8.9-7.7
			c5,0,7.6,2.8,7.6,2.8l-1.4,2.4c0,0-2.5-2.4-6.3-2.4c-3.7,0-6,2.4-6,4.9c0,6.8,14.3,4.8,14.3,14.2c0,4.3-3.3,7.7-8.7,7.7
			c-5.9,0-9.1-3.7-9.1-3.7L41,68.4z"/>
		<path class="st0" d="M62.1,68.4c0,0,3,3.1,7.5,3.1c3.1,0,5.7-1.9,5.7-5c0-7.2-14.3-5.4-14.3-14.2c0-4.1,3.6-7.7,8.9-7.7
			c5,0,7.6,2.8,7.6,2.8l-1.4,2.4c0,0-2.5-2.4-6.3-2.4c-3.7,0-6,2.4-6,4.9c0,6.8,14.3,4.8,14.3,14.2c0,4.3-3.3,7.7-8.7,7.7
			c-5.9,0-9.1-3.7-9.1-3.7L62.1,68.4z"/>
		<path class="st0" d="M96.2,44.6c8.1,0,14.6,6.4,14.6,14.6c0,8.4-6.5,15-14.6,15c-8.1,0-14.6-6.6-14.6-15
			C81.6,51,88.1,44.6,96.2,44.6z M96.2,71.6c6.4,0,11.6-5.4,11.6-12.4c0-6.8-5.2-12-11.6-12c-6.5,0-11.6,5.2-11.6,12
			C84.6,66.2,89.7,71.6,96.2,71.6z"/>
		<path class="st0" d="M128.7,44.6c6.8,0,10.3,3.7,10.3,3.7l-1.5,2.1c0,0-3.3-3.2-8.7-3.2c-6.7,0-11.5,5.2-11.5,12
			c0,6.8,4.8,12.4,11.6,12.4c5.8,0,9.3-3.8,9.3-3.8l1.6,2c0,0-3.9,4.4-10.9,4.4c-8.5,0-14.5-6.6-14.5-15
			C114.4,50.9,120.5,44.6,128.7,44.6z"/>
		<path class="st0" d="M145,45.1h2.8v28.6H145V45.1z"/>
		<path class="st0" d="M169.4,64.6h-11.5l-3.3,9.1h-3l10.5-28.6h3l10.5,28.6h-3L169.4,64.6z M163.7,48.1c0,0-0.6,2.4-1.1,3.7
			l-3.8,10.4h9.8l-3.7-10.4C164.4,50.4,163.7,48.1,163.7,48.1L163.7,48.1z"/>
		<path class="st0" d="M184.2,47.6h-10.3v-2.5h23.3v2.5H187v26.1h-2.8V47.6z"/>
		<path class="st0" d="M200.8,45.1h2.8v28.6h-2.8V45.1z"/>
		<path class="st0" d="M223.7,44.6c8.1,0,14.6,6.4,14.6,14.6c0,8.4-6.5,15-14.6,15c-8.1,0-14.6-6.6-14.6-15
			C209.1,51,215.6,44.6,223.7,44.6z M223.7,71.6c6.4,0,11.6-5.4,11.6-12.4c0-6.8-5.2-12-11.6-12c-6.5,0-11.6,5.2-11.6,12
			C212.1,66.2,217.2,71.6,223.7,71.6z"/>
		<path class="st0" d="M243.8,45.1h2.7l14.6,20.6c1,1.4,2.4,3.9,2.4,3.9h0.1c0,0-0.2-2.4-0.2-3.9V45.1h2.8v28.6h-2.7l-14.6-20.6
			c-1-1.4-2.4-3.9-2.4-3.9h-0.1c0,0,0.2,2.4,0.2,3.9v20.6h-2.8V45.1z"/>
	</g>
	<g>
		<path class="st0" d="M78,3.8h2.7l14.6,20.6c1,1.4,2.4,3.9,2.4,3.9h0.1c0,0-0.2-2.4-0.2-3.9V3.8h2.8v28.6h-2.7L83,11.8
			c-1-1.4-2.4-3.9-2.4-3.9h-0.1c0,0,0.2,2.4,0.2,3.9v20.6H78V3.8z"/>
		<path class="st0" d="M121.9,23.2h-11.5l-3.3,9.1h-3l10.5-28.6h3l10.5,28.6h-3L121.9,23.2z M116.1,6.7c0,0-0.6,2.4-1.1,3.7
			l-3.8,10.4h9.8l-3.7-10.4C116.8,9.1,116.2,6.7,116.1,6.7L116.1,6.7z"/>
		<path class="st0" d="M136.6,6.3h-10.3V3.8h23.3v2.5h-10.2v26.1h-2.8V6.3z"/>
		<path class="st0" d="M153.3,3.8h2.8v28.6h-2.8V3.8z"/>
		<path class="st0" d="M176.2,3.3c8.1,0,14.6,6.4,14.6,14.6c0,8.4-6.5,15-14.6,15c-8.1,0-14.6-6.6-14.6-15
			C161.6,9.7,168.1,3.3,176.2,3.3z M176.2,30.2c6.4,0,11.6-5.4,11.6-12.4c0-6.8-5.2-12-11.6-12c-6.5,0-11.6,5.2-11.6,12
			C164.6,24.9,169.7,30.2,176.2,30.2z"/>
		<path class="st0" d="M196.3,3.8h2.7l14.6,20.6c1,1.4,2.4,3.9,2.4,3.9h0.1c0,0-0.2-2.4-0.2-3.9V3.8h2.8v28.6h-2.7l-14.6-20.6
			c-1-1.4-2.4-3.9-2.4-3.9h-0.1c0,0,0.2,2.4,0.2,3.9v20.6h-2.8V3.8z"/>
		<path class="st0" d="M240.2,23.2h-11.5l-3.3,9.1h-3l10.5-28.6h3l10.5,28.6h-3L240.2,23.2z M234.4,6.7c0,0-0.6,2.4-1.1,3.7
			l-3.8,10.4h9.8l-3.7-10.4C235.1,9.1,234.5,6.7,234.4,6.7L234.4,6.7z"/>
		<path class="st0" d="M250.3,3.8h2.8v26.1h13.3v2.5h-16.1V3.8z"/>
	</g>
	<g>
		<path class="st2" d="M90.8,201.3l-36.9,0.4l25-11.4l-16.4-15.1c-20.8,5.7-41.7,12-62.5,19c38.7,9.3,73.9,15.2,108.5,23.3
			L90.8,201.3z"/>
		<path class="st2" d="M337.3,292.9l-36.8,3.2l24.1-13.2l-20.5-16.2l35.4,8.1l12.8-7c-29-28.4-78.9-54.5-128.6-73.1l-7.3,4.9
			l15.4,21.1l-28.4-12.4l-21,14.1l3.4-21.7l-28.4-12.4l30.5-1l0.7-4.5c-35.4-10.9-68.1-17.1-89.7-16.8c-11.1,2.7-22.2,5.5-33.3,8.6
			l28.8,8.9l25-11.4l-3.6,18l34.7,10.7l-36.9,0.4l-3.4,17c35.7,8.5,70.9,19.6,109,39.6l17.3-9.5L216,231.8l35.4,8.1l24.1-13.2
			l-2.2,18.2l35.4,8.1l-36.8,3.2l-2.2,18.2l-20.5-16.2l-24.8,2.2c28.5,15.4,58.7,35.9,91.9,64c9.6-8.7,19.6-16.8,29.9-24.3
			L337.3,292.9z"/>
	</g>
</g>
</svg>
