<?xml version="1.0" encoding="utf-8"?>
<!-- Generator: Adobe Illustrator 16.0.4, SVG Export Plug-In . SVG Version: 6.00 Build 0)  -->
<!DOCTYPE svg PUBLIC "-//W3C//DTD SVG 1.0//EN" "http://www.w3.org/TR/2001/REC-SVG-20010904/DTD/svg10.dtd">
<svg version="1.0" xmlns="http://www.w3.org/2000/svg" xmlns:xlink="http://www.w3.org/1999/xlink" x="0px" y="0px" width="35px"
	 height="35px" viewBox="0 0 35 35" enable-background="new 0 0 35 35" xml:space="preserve">
<g id="Layer_2">
	<g>
		<g>
			<path fill="#FF9933" d="M17.529,34.359c-9.28,0-16.828-7.549-16.828-16.829c0-9.28,7.547-16.829,16.828-16.829
				c9.28,0,16.829,7.549,16.829,16.829C34.357,26.811,26.809,34.359,17.529,34.359L17.529,34.359z M17.529,1.449
				c-8.867,0-16.08,7.213-16.08,16.081c0,8.868,7.213,16.081,16.08,16.081c8.868,0,16.081-7.213,16.081-16.081
				C33.609,8.663,26.396,1.449,17.529,1.449L17.529,1.449z"/>
		</g>
	</g>
</g>
<g id="population">
	<g>
		<path fill="#FF9933" d="M17.53,9.504c-4.434,0-8.027,3.594-8.027,8.027c0,1.929,0,8.026,0,8.026s5.523,0,8.027,0
			c4.433,0,8.027-3.594,8.027-8.026C25.557,13.098,21.963,9.504,17.53,9.504z M17.53,25.022h-7.491v-7.491
			c0-4.133,3.36-7.492,7.491-7.492c4.13,0,7.492,3.359,7.492,7.492C25.021,21.661,21.66,25.022,17.53,25.022z"/>
		<path fill="#FF9933" d="M17.53,12.18c-2.955,0-5.352,2.396-5.352,5.352c0,2.954,2.396,5.351,5.352,5.351
			c2.955,0,5.351-2.396,5.351-5.351C22.881,14.576,20.484,12.18,17.53,12.18z M14.725,21.438c0.457-0.367,0.902-0.615,1.497-0.752
			l0.134-0.031l0.102-0.09c0.482-0.43,0.651-1.059,0.476-1.771l-0.025-0.104l-0.063-0.086c-0.268-0.361-0.482-0.842-0.574-1.285
			l-0.027-0.129l-0.084-0.102c-0.095-0.117-0.143-0.236-0.143-0.359c0-0.104,0.034-0.207,0.102-0.307l0.189-0.275l-0.165-0.291
			c-0.042-0.074-0.042-0.217-0.04-0.385v-0.082c0-0.549,0.694-1.068,1.428-1.068c0.732,0,1.427,0.52,1.427,1.068v0.082
			c0,0.168,0.002,0.311-0.039,0.385l-0.166,0.291l0.189,0.275c0.066,0.1,0.102,0.203,0.102,0.307c0,0.123-0.047,0.242-0.145,0.359
			l-0.082,0.102l-0.027,0.129c-0.092,0.443-0.307,0.924-0.574,1.285l-0.062,0.086l-0.025,0.104
			c-0.177,0.715-0.008,1.342,0.473,1.771l0.104,0.09l0.133,0.031c0.596,0.137,1.041,0.385,1.498,0.752
			c-0.791,0.568-1.758,0.908-2.804,0.908C16.483,22.347,15.516,22.007,14.725,21.438z M20.758,21.095
			c-0.529-0.439-1.064-0.76-1.801-0.93c-0.273-0.242-0.463-0.629-0.312-1.244c0.291-0.392,0.555-0.94,0.668-1.493
			c0.168-0.205,0.266-0.443,0.266-0.699c0-0.219-0.07-0.426-0.195-0.609c0.125-0.219,0.109-0.465,0.109-0.73
			c0-0.885-0.979-1.604-1.962-1.604c-0.985,0-1.962,0.719-1.962,1.604c0,0.266-0.017,0.512,0.108,0.73
			c-0.125,0.184-0.195,0.391-0.195,0.609c0,0.256,0.098,0.494,0.265,0.699c0.115,0.553,0.378,1.102,0.667,1.493
			c0.152,0.615-0.037,1.002-0.311,1.244c-0.736,0.168-1.271,0.492-1.799,0.932c-0.974-0.883-1.59-2.152-1.59-3.565
			c0-2.656,2.16-4.816,4.816-4.816c2.656,0,4.816,2.16,4.816,4.816C22.346,18.944,21.73,20.214,20.758,21.095z"/>
	</g>
	<g>
	</g>
	<g>
	</g>
	<g>
	</g>
	<g>
	</g>
	<g>
	</g>
	<g>
	</g>
	<g>
	</g>
	<g>
	</g>
	<g>
	</g>
	<g>
	</g>
	<g>
	</g>
	<g>
	</g>
	<g>
	</g>
	<g>
	</g>
	<g>
	</g>
</g>
</svg>
