<?xml version="1.0" encoding="utf-8"?>
<!-- Generator: Adobe Illustrator 16.0.4, SVG Export Plug-In . SVG Version: 6.00 Build 0)  -->
<!DOCTYPE svg PUBLIC "-//W3C//DTD SVG 1.0//EN" "http://www.w3.org/TR/2001/REC-SVG-20010904/DTD/svg10.dtd">
<svg version="1.0" id="Layer_1" xmlns="http://www.w3.org/2000/svg" xmlns:xlink="http://www.w3.org/1999/xlink" x="0px" y="0px"
	 width="25px" height="25px" viewBox="0 0 25 25" enable-background="new 0 0 25 25" xml:space="preserve">
<g>
	<g>
		<path d="M12.5,24.279c-6.497,0-11.78-5.283-11.78-11.78c0-6.496,5.283-11.78,11.78-11.78c6.496,0,11.779,5.284,11.779,11.78
			C24.279,18.996,18.996,24.279,12.5,24.279L12.5,24.279z M12.5,1.243c-6.207,0-11.256,5.05-11.256,11.257
			c0,6.208,5.049,11.256,11.256,11.256S23.756,18.707,23.756,12.5C23.756,6.292,18.707,1.243,12.5,1.243L12.5,1.243z"/>
	</g>
</g>
<g>
	<g>
		<g>
			<g>
				<path d="M11.2,9.897H8.393c-0.146,0-0.263-0.117-0.263-0.262c0-0.145,0.117-0.261,0.263-0.261h2.545V6.827
					c0-0.144,0.117-0.261,0.263-0.261c0.145,0,0.261,0.117,0.261,0.261v2.809C11.461,9.78,11.345,9.897,11.2,9.897L11.2,9.897z"/>
			</g>
			<g>
				<path d="M16.037,12.25H8.393c-0.146,0-0.263-0.118-0.263-0.262V9.635c0-0.07,0.028-0.136,0.077-0.185l2.809-2.808
					c0.049-0.049,0.114-0.077,0.185-0.077h4.837c0.145,0,0.261,0.117,0.261,0.261v5.162C16.298,12.132,16.182,12.25,16.037,12.25
					L16.037,12.25z M8.653,11.726h7.121V7.089h-4.467L8.653,9.744V11.726L8.653,11.726z"/>
			</g>
		</g>
		<g>
			<g>
				<path d="M16.037,18.33H8.393c-0.146,0-0.263-0.119-0.263-0.264v-2.588c0-0.145,0.117-0.26,0.263-0.26h7.645
					c0.145,0,0.261,0.115,0.261,0.26v2.588C16.298,18.211,16.182,18.33,16.037,18.33L16.037,18.33z M8.653,17.807h7.121v-2.064
					H8.653V17.807L8.653,17.807z"/>
			</g>
		</g>
		<g>
			<polygon points="18.099,17.164 16.721,17.164 16.721,16.641 17.574,16.641 17.574,12.317 6.853,12.317 6.853,16.641 
				7.709,16.641 7.709,17.164 6.33,17.164 6.33,11.794 18.099,11.794 18.099,17.164 			"/>
		</g>
		<path d="M15.268,13.396c-0.277,0-0.502,0.225-0.502,0.5c0,0.277,0.225,0.502,0.502,0.502c0.275,0,0.502-0.225,0.502-0.502
			C15.77,13.621,15.543,13.396,15.268,13.396L15.268,13.396z"/>
		<g>
			<path d="M13.776,14.158h-3.216c-0.145,0-0.262-0.117-0.262-0.262s0.117-0.262,0.262-0.262h3.216c0.146,0,0.263,0.117,0.263,0.262
				S13.922,14.158,13.776,14.158L13.776,14.158z"/>
		</g>
	</g>
</g>
<g>
</g>
<g>
</g>
<g>
</g>
<g>
</g>
<g>
</g>
<g>
</g>
<g>
</g>
<g>
</g>
<g>
</g>
<g>
</g>
<g>
</g>
<g>
</g>
<g>
</g>
<g>
</g>
<g>
</g>
</svg>
