<?xml version="1.0" encoding="utf-8"?>
<!-- Generator: Adobe Illustrator 16.0.4, SVG Export Plug-In . SVG Version: 6.00 Build 0)  -->
<!DOCTYPE svg PUBLIC "-//W3C//DTD SVG 1.0//EN" "http://www.w3.org/TR/2001/REC-SVG-20010904/DTD/svg10.dtd">
<svg version="1.0" id="Layer_1" xmlns="http://www.w3.org/2000/svg" xmlns:xlink="http://www.w3.org/1999/xlink" x="0px" y="0px"
	 width="25px" height="25px" viewBox="0 0 25 25" enable-background="new 0 0 25 25" xml:space="preserve">
<g>
	<g>
		<path fill="#FFFFFF" d="M12.5,24.28c-6.497,0-11.78-5.284-11.78-11.78S6.003,0.72,12.5,0.72c6.496,0,11.779,5.284,11.779,11.78
			S18.996,24.28,12.5,24.28L12.5,24.28z M12.5,1.243C6.293,1.243,1.244,6.292,1.244,12.5c0,6.208,5.049,11.257,11.256,11.257
			S23.756,18.708,23.756,12.5C23.756,6.292,18.707,1.243,12.5,1.243L12.5,1.243z"/>
	</g>
</g>
<g>
	<g>
		<path fill="#FFFFFF" d="M10.178,15.062c-0.066,0-0.133-0.026-0.182-0.076c-0.102-0.101-0.102-0.265,0-0.364l4.502-4.503
			c0.101-0.101,0.264-0.101,0.365,0c0.1,0.101,0.1,0.264,0,0.364l-4.504,4.503C10.309,15.035,10.242,15.062,10.178,15.062
			L10.178,15.062z"/>
	</g>
	<g>
		<path fill="#FFFFFF" d="M14.624,13.017c-0.075,0-0.151-0.004-0.229-0.01c-0.142-0.013-0.247-0.139-0.233-0.281
			c0.014-0.142,0.143-0.242,0.28-0.233c0.59,0.056,1.162-0.151,1.575-0.565l1.282-1.283c0.776-0.776,0.776-2.041,0.001-2.818
			L17.155,7.68c-0.778-0.775-2.041-0.776-2.817,0.001l-1.283,1.281c-0.412,0.414-0.62,0.99-0.566,1.576
			c0.012,0.143-0.093,0.269-0.234,0.281c-0.141,0.01-0.268-0.092-0.28-0.234c-0.066-0.74,0.196-1.465,0.718-1.987l1.281-1.282
			c0.977-0.979,2.568-0.979,3.547,0l0.145,0.145c0.979,0.979,0.979,2.57,0,3.548l-1.281,1.283
			C15.914,12.759,15.283,13.017,14.624,13.017L14.624,13.017z"/>
	</g>
	<g>
		<path fill="#FFFFFF" d="M9.257,18.376c-0.642,0-1.284-0.244-1.774-0.733l-0.146-0.146c-0.473-0.472-0.735-1.103-0.735-1.772
			s0.262-1.299,0.736-1.772l1.28-1.282c0.523-0.522,1.252-0.781,1.987-0.717c0.142,0.012,0.247,0.139,0.233,0.28
			c-0.012,0.142-0.131,0.246-0.278,0.233c-0.593-0.057-1.163,0.154-1.577,0.568l-1.281,1.281c-0.377,0.377-0.585,0.877-0.585,1.408
			c0,0.533,0.208,1.033,0.584,1.408l0.146,0.148c0.777,0.773,2.041,0.775,2.818-0.003l1.283-1.282
			c0.412-0.413,0.619-0.987,0.566-1.576c-0.013-0.141,0.092-0.268,0.233-0.279c0.146-0.007,0.269,0.092,0.28,0.234
			c0.065,0.74-0.194,1.465-0.716,1.986l-1.283,1.282C10.543,18.132,9.9,18.376,9.257,18.376L9.257,18.376z"/>
	</g>
</g>
<g>
</g>
<g>
</g>
<g>
</g>
<g>
</g>
<g>
</g>
<g>
</g>
<g>
</g>
<g>
</g>
<g>
</g>
<g>
</g>
<g>
</g>
<g>
</g>
<g>
</g>
<g>
</g>
<g>
</g>
</svg>
