<?xml version="1.0" encoding="utf-8"?>
<!-- Generator: Adobe Illustrator 16.0.4, SVG Export Plug-In . SVG Version: 6.00 Build 0)  -->
<!DOCTYPE svg PUBLIC "-//W3C//DTD SVG 1.0//EN" "http://www.w3.org/TR/2001/REC-SVG-20010904/DTD/svg10.dtd">
<svg version="1.0" id="Layer_1" xmlns="http://www.w3.org/2000/svg" xmlns:xlink="http://www.w3.org/1999/xlink" x="0px" y="0px"
	 width="33px" height="33px" viewBox="0 0 33 33" enable-background="new 0 0 33 33" xml:space="preserve">
<g>
	<path fill="#231F20" d="M16.5,1.689C8.333,1.689,1.689,8.333,1.689,16.5S8.333,31.311,16.5,31.311S31.311,24.667,31.311,16.5
		S24.667,1.689,16.5,1.689 M16.5,32C7.953,32,1,25.047,1,16.5S7.953,1,16.5,1S32,7.953,32,16.5S25.047,32,16.5,32"/>
	<path fill="#231F20" d="M22.7,22.892h-4.406c-0.191,0-0.345-0.154-0.345-0.344V17.86h-2.898v4.688c0,0.189-0.154,0.344-0.345,0.344
		H10.3c-0.19,0-0.344-0.154-0.344-0.344v-7.156c0-0.19,0.153-0.344,0.344-0.344s0.345,0.154,0.345,0.344v6.812h3.717v-4.687
		c0-0.19,0.154-0.345,0.345-0.345h3.588c0.19,0,0.344,0.154,0.344,0.345v4.687h3.719v-6.812c0-0.19,0.153-0.344,0.344-0.344
		c0.189,0,0.344,0.154,0.344,0.344v7.156C23.044,22.737,22.89,22.892,22.7,22.892"/>
	<path fill="#231F20" d="M24.775,16.724c-0.068,0-0.14-0.021-0.199-0.063L16.5,10.877L8.425,16.66
		c-0.155,0.109-0.37,0.074-0.481-0.08c-0.111-0.155-0.075-0.37,0.08-0.481l8.276-5.927c0.119-0.085,0.28-0.085,0.401,0l8.275,5.927
		c0.155,0.111,0.19,0.326,0.08,0.481C24.989,16.674,24.883,16.724,24.775,16.724"/>
</g>
<g>
</g>
<g>
</g>
<g>
</g>
<g>
</g>
<g>
</g>
<g>
</g>
<g>
</g>
<g>
</g>
<g>
</g>
<g>
</g>
<g>
</g>
</svg>
