<?xml version="1.0" encoding="utf-8"?>
<!-- Generator: Adobe Illustrator 16.0.4, SVG Export Plug-In . SVG Version: 6.00 Build 0)  -->
<!DOCTYPE svg PUBLIC "-//W3C//DTD SVG 1.0//EN" "http://www.w3.org/TR/2001/REC-SVG-20010904/DTD/svg10.dtd">
<svg version="1.0" id="Layer_1" xmlns="http://www.w3.org/2000/svg" xmlns:xlink="http://www.w3.org/1999/xlink" x="0px" y="0px"
	 width="33px" height="33px" viewBox="0 0 33 33" enable-background="new 0 0 33 33" xml:space="preserve">
<g>
	<path d="M16.5,1.689C8.334,1.689,1.689,8.333,1.689,16.5S8.334,31.311,16.5,31.311S31.311,24.667,31.311,16.5
		S24.666,1.689,16.5,1.689 M16.5,32C7.953,32,1,25.047,1,16.5S7.953,1,16.5,1S32,7.953,32,16.5S25.047,32,16.5,32"/>
	<path d="M11.018,14.863c-0.902,0-1.636,0.734-1.636,1.636c0,0.902,0.733,1.637,1.636,1.637s1.637-0.734,1.637-1.637
		C12.654,15.597,11.92,14.863,11.018,14.863 M11.018,18.824c-1.281,0-2.325-1.043-2.325-2.325c0-1.282,1.043-2.325,2.325-2.325
		c1.282,0,2.325,1.043,2.325,2.325C13.343,17.781,12.3,18.824,11.018,18.824"/>
	<path d="M21.982,8.979c-0.902,0-1.636,0.734-1.636,1.636c0,0.902,0.733,1.636,1.636,1.636c0.901,0,1.636-0.734,1.636-1.636
		C23.618,9.713,22.884,8.979,21.982,8.979 M21.982,12.94c-1.282,0-2.325-1.043-2.325-2.325c0-1.282,1.043-2.325,2.325-2.325
		s2.325,1.043,2.325,2.325C24.308,11.897,23.265,12.94,21.982,12.94"/>
	<path d="M21.982,20.748c-0.902,0-1.636,0.733-1.636,1.636s0.733,1.636,1.636,1.636c0.901,0,1.636-0.733,1.636-1.636
		S22.884,20.748,21.982,20.748 M21.982,24.709c-1.282,0-2.325-1.043-2.325-2.325s1.043-2.325,2.325-2.325s2.325,1.043,2.325,2.325
		S23.265,24.709,21.982,24.709"/>
	<path d="M19.943,21.682c-0.059,0-0.117-0.015-0.172-0.046l-7.031-4.06c-0.166-0.095-0.221-0.306-0.127-0.471
		c0.096-0.164,0.308-0.223,0.472-0.125l7.031,4.06c0.165,0.094,0.222,0.305,0.127,0.47C20.178,21.62,20.062,21.682,19.943,21.682"/>
	<path d="M12.912,16.065c-0.117,0-0.234-0.062-0.299-0.172c-0.096-0.165-0.038-0.376,0.127-0.471l7.031-4.059
		c0.164-0.097,0.375-0.039,0.471,0.125c0.095,0.165,0.039,0.376-0.126,0.471l-7.032,4.06C13.03,16.051,12.971,16.065,12.912,16.065"
		/>
</g>
<g>
</g>
<g>
</g>
<g>
</g>
<g>
</g>
<g>
</g>
<g>
</g>
<g>
</g>
<g>
</g>
<g>
</g>
<g>
</g>
<g>
</g>
</svg>
