<?xml version="1.0" encoding="utf-8"?>
<!-- Generator: Adobe Illustrator 19.0.0, SVG Export Plug-In . SVG Version: 6.00 Build 0)  -->
<svg version="1.0" id="Layer_1" xmlns="http://www.w3.org/2000/svg" xmlns:xlink="http://www.w3.org/1999/xlink" x="0px" y="0px"
	 viewBox="0 0 30 30" style="enable-background:new 0 0 30 30;" xml:space="preserve">
<style type="text/css">
	.st0{fill:#FFFFFF;}
</style>
<path id="XMLID_3_" class="st0" d="M17.6,16.2c-0.4,0-0.9,0.2-1.2,0.4l-2.1-1.3c0-0.1,0-0.3,0-0.4c0-0.1,0-0.2,0-0.3l2.2-1.3
	c0.3,0.2,0.7,0.4,1.1,0.4c1,0,1.9-0.9,1.9-1.9c0-1-0.8-1.9-1.9-1.9c-1,0-1.9,0.9-1.9,1.9c0,0.1,0,0.2,0,0.3l-2.2,1.3
	c-0.3-0.2-0.7-0.4-1.1-0.4c-1,0-1.9,0.8-1.9,1.9c0,1,0.8,1.9,1.9,1.9c0.4,0,0.8-0.1,1.1-0.3l2.2,1.4c0,0.1,0,0.1,0,0.2
	c0,1,0.8,1.9,1.9,1.9c1,0,1.9-0.8,1.9-1.9C19.5,17.1,18.6,16.2,17.6,16.2"/>
</svg>
