<?xml version="1.0" encoding="utf-8"?>
<!-- Generator: Adobe Illustrator 19.1.0, SVG Export Plug-In . SVG Version: 6.00 Build 0)  -->
<svg version="1.1" id="Layer_1" xmlns="http://www.w3.org/2000/svg" xmlns:xlink="http://www.w3.org/1999/xlink" x="0px" y="0px"
	 viewBox="-337 138 25 25" style="enable-background:new -337 138 25 25;" xml:space="preserve">
<style type="text/css">
	.st0{fill:#FFFFFF;}
</style>
<g>
	<g>
		<path class="st0" d="M-324.5,162.3c-6.5,0-11.8-5.3-11.8-11.8c0-6.5,5.3-11.8,11.8-11.8c6.5,0,11.8,5.3,11.8,11.8
			C-312.7,157-318,162.3-324.5,162.3L-324.5,162.3z M-324.5,139.2c-6.2,0-11.3,5.1-11.3,11.3c0,6.2,5,11.3,11.3,11.3
			s11.3-5,11.3-11.3C-313.2,144.3-318.3,139.2-324.5,139.2L-324.5,139.2z"/>
	</g>
</g>
<g>
	<path class="st0" d="M-324.5,154.5l2.9-4.6c0.4-0.6,0.7-1.5,0.7-2.3c0-2-1.6-3.7-3.5-3.7c-1.9,0-3.5,1.7-3.5,3.7
		c0,0.8,0.2,1.7,0.7,2.3L-324.5,154.5z M-324.5,144.3c1.7,0,3.1,1.5,3.1,3.3c0,0.8-0.2,1.6-0.6,2.1l0,0l0,0l-2.5,4l-2.5-4l0,0l0,0
		c-0.4-0.5-0.6-1.4-0.6-2.1C-327.7,145.8-326.2,144.3-324.5,144.3z"/>
	<path class="st0" d="M-324.5,148.8c0.8,0,1.4-0.6,1.4-1.4c0-0.8-0.6-1.4-1.4-1.4c-0.8,0-1.4,0.6-1.4,1.4
		C-325.9,148.2-325.3,148.8-324.5,148.8z M-324.5,146.4c0.5,0,1,0.4,1,1c0,0.5-0.4,1-1,1c-0.5,0-1-0.4-1-1
		C-325.5,146.9-325.1,146.4-324.5,146.4z"/>
	<polygon class="st0" points="-320.7,151.7 -322.2,151.7 -322.2,152.1 -321,152.1 -319.4,155.3 -329.7,155.3 -328.1,152.1 
		-326.9,152.1 -326.9,151.7 -328.3,151.7 -330.3,155.7 -318.7,155.7 	"/>
</g>
</svg>
