<?xml version="1.0" encoding="utf-8"?>
<!-- Generator: Adobe Illustrator 16.0.4, SVG Export Plug-In . SVG Version: 6.00 Build 0)  -->
<!DOCTYPE svg PUBLIC "-//W3C//DTD SVG 1.0//EN" "http://www.w3.org/TR/2001/REC-SVG-20010904/DTD/svg10.dtd">
<svg version="1.0" id="Layer_1" xmlns="http://www.w3.org/2000/svg" xmlns:xlink="http://www.w3.org/1999/xlink" x="0px" y="0px"
	 width="25px" height="25px" viewBox="0 0 25 25" enable-background="new 0 0 25 25" xml:space="preserve">
<g>
	<g>
		<path d="M12.5,24.279c-6.497,0-11.78-5.283-11.78-11.78c0-6.496,5.283-11.78,11.78-11.78c6.496,0,11.779,5.284,11.779,11.78
			C24.279,18.996,18.996,24.279,12.5,24.279L12.5,24.279z M12.5,1.243c-6.207,0-11.256,5.05-11.256,11.257
			c0,6.208,5.049,11.256,11.256,11.256S23.756,18.707,23.756,12.5C23.756,6.292,18.707,1.243,12.5,1.243L12.5,1.243z"/>
	</g>
</g>
<g>
	<path d="M12.48,16.482l2.871-4.556c0.412-0.607,0.656-1.523,0.656-2.324c0-2.046-1.58-3.705-3.527-3.705
		c-1.949,0-3.528,1.659-3.528,3.705c0,0.801,0.245,1.717,0.656,2.324L12.48,16.482z M12.48,6.29c1.729,0,3.136,1.486,3.136,3.312
		c0,0.752-0.231,1.576-0.589,2.104l-0.004,0.005l-0.004,0.005l-2.539,4.031l-2.54-4.031l-0.004-0.005l-0.005-0.005
		c-0.357-0.527-0.588-1.352-0.588-2.104C9.344,7.776,10.75,6.29,12.48,6.29z"/>
	<path d="M12.48,10.798c0.757,0,1.371-0.615,1.371-1.372s-0.614-1.373-1.371-1.373c-0.758,0-1.373,0.615-1.373,1.373
		S11.723,10.798,12.48,10.798z M12.48,8.446c0.539,0,0.979,0.44,0.979,0.98s-0.439,0.98-0.979,0.98c-0.541,0-0.98-0.44-0.98-0.98
		S11.939,8.446,12.48,8.446z"/>
	<polygon points="16.258,13.738 14.832,13.738 14.832,14.131 16.02,14.131 17.646,17.266 7.314,17.266 8.939,14.131 10.128,14.131 
		10.128,13.738 8.701,13.738 6.669,17.658 18.291,17.658 	"/>
</g>
<g>
</g>
<g>
</g>
<g>
</g>
<g>
</g>
<g>
</g>
<g>
</g>
<g>
</g>
<g>
</g>
<g>
</g>
<g>
</g>
<g>
</g>
<g>
</g>
<g>
</g>
<g>
</g>
<g>
</g>
</svg>
